<svg xmlns="http://www.w3.org/2000/svg" xmlns:xlink="http://www.w3.org/1999/xlink" width="500" zoomAndPan="magnify" viewBox="0 0 375 374.999991" height="500" preserveAspectRatio="xMidYMid meet" version="1.0"><rect x="-37.5" width="450" fill="#ffffff" y="-37.499999" height="449.999989" fill-opacity="1"/><rect x="-37.5" width="450" fill="#ffffff" y="-37.499999" height="449.999989" fill-opacity="1"/><path fill="#fbd117" d="M -169.03125 290.722656 L -169.03125 652.550781 L 554.625 652.550781 L 554.625 -71.105469 L -169.03125 -71.105469 Z M 170.464844 36.242188 C 171.59375 37.441406 171.59375 39.84375 170.394531 75.605469 C 169.757812 96.59375 169.40625 114.542969 169.6875 115.601562 C 170.183594 117.371094 170.535156 117.582031 173.363281 117.582031 C 175.625 117.582031 176.683594 117.230469 177.109375 116.308594 C 177.460938 115.675781 177.957031 109.878906 178.238281 103.449219 C 180.359375 47.195312 180.925781 37.441406 182.265625 35.886719 C 183.257812 34.6875 185.871094 34.617188 187 35.746094 C 187.636719 36.382812 187.847656 46.347656 187.847656 76.3125 C 187.847656 120.339844 187.566406 117.863281 192.585938 117.441406 L 195.269531 117.230469 L 195.695312 111.929688 C 195.976562 109.03125 196.1875 98.5 196.257812 88.609375 C 196.257812 78.714844 196.542969 63.167969 196.824219 54.121094 C 197.179688 40.199219 197.460938 37.371094 198.449219 36.171875 C 199.863281 34.402344 203.113281 34.828125 203.679688 36.878906 C 204.105469 38.289062 204.527344 49.386719 205.515625 82.601562 C 206.507812 113.128906 206.578125 115.816406 207.214844 116.804688 C 207.496094 117.230469 209.121094 117.582031 210.816406 117.582031 C 214.917969 117.582031 215.765625 116.167969 215.128906 109.878906 C 214.917969 107.335938 214.492188 89.808594 214.210938 70.941406 C 213.785156 39.632812 213.855469 36.59375 214.917969 35.675781 C 216.398438 34.476562 219.4375 35.179688 219.933594 36.878906 C 220.710938 39.421875 222.832031 65.214844 224.949219 98.855469 C 225.164062 102.316406 225.65625 109.382812 226.082031 114.472656 C 227.285156 130.375 225.726562 135.460938 216.683594 144.507812 C 205.800781 155.460938 203.042969 162.035156 203.042969 176.945312 C 203.042969 181.820312 203.46875 192.773438 203.960938 201.324219 C 204.386719 209.875 204.953125 220.832031 205.164062 225.707031 C 205.515625 235.035156 205.941406 243.375 206.578125 255.035156 C 206.789062 258.921875 207.425781 273.410156 207.992188 287.332031 C 209.332031 320.261719 208.625 326.621094 202.621094 333.40625 C 194.070312 343.160156 179.582031 340.472656 174.28125 328.175781 C 171.03125 320.617188 170.960938 314.042969 174.070312 272.703125 C 174.5625 265.28125 175.410156 253.691406 175.835938 246.90625 C 176.261719 240.125 176.894531 231.5 177.25 227.828125 C 179.371094 206.484375 180.925781 182.101562 180.640625 173.765625 C 180.148438 160.691406 178.238281 156.519531 167.707031 145.214844 C 161.84375 138.925781 160.21875 136.167969 158.523438 129.523438 C 157.601562 126.203125 157.460938 123.519531 157.746094 119.347656 C 159.085938 102.035156 162.550781 60.410156 163.539062 49.738281 C 164.671875 37.019531 165.375 34.898438 168.0625 34.898438 C 168.699219 34.898438 169.828125 35.464844 170.464844 36.242188 Z M 151.808594 59.066406 C 151.3125 65.78125 150.535156 75.886719 150.113281 81.46875 L 149.335938 91.574219 L 144.386719 95.605469 C 138.734375 100.199219 133.011719 108.113281 131.03125 114.046875 C 129.40625 118.996094 128.769531 128.820312 129.828125 133.976562 C 132.234375 145.566406 140.785156 155.957031 152.65625 161.679688 C 156.261719 163.445312 161.984375 165.566406 165.375 166.414062 C 171.3125 167.898438 171.523438 167.96875 171.242188 169.808594 C 171.101562 170.796875 170.464844 178.5 169.828125 186.839844 C 168.34375 207.332031 168.203125 208.039062 166.789062 208.039062 C 164.671875 208.039062 152.304688 204.648438 145.941406 202.316406 C 132.445312 197.507812 121.277344 190.726562 111.597656 181.609375 C 72.660156 144.71875 80.714844 83.660156 128.273438 55.109375 C 137.039062 49.878906 150.605469 44.863281 152.089844 46.277344 C 152.515625 46.699219 152.445312 51.433594 151.808594 59.066406 Z M 238.800781 47.546875 C 257.035156 53.765625 274.632812 67.617188 284.527344 83.308594 C 288.339844 89.457031 292.441406 98.996094 294.347656 106.132812 C 296.679688 115.179688 297.035156 130.9375 295.054688 140.195312 C 293.5 147.335938 289.753906 157.015625 287.140625 160.40625 C 283.113281 165.636719 277.246094 167.898438 269.898438 166.980469 C 262.476562 165.992188 254.277344 158.289062 252.511719 150.515625 C 251.734375 147.40625 251.804688 146.558594 252.9375 144.367188 C 253.644531 142.953125 254.703125 139.207031 255.410156 135.957031 C 258.308594 121.328125 253.21875 107.476562 240.710938 96.167969 L 235.761719 91.644531 L 234.421875 73.695312 C 232.796875 51.433594 232.726562 46.207031 233.996094 46.207031 C 234.5625 46.207031 236.683594 46.769531 238.800781 47.546875 Z M 224.246094 182.738281 C 245.375 187.828125 260.851562 196.097656 272.863281 208.746094 C 285.585938 222.101562 291.734375 237.71875 291.734375 256.871094 C 291.734375 295.316406 265.445312 326.621094 224.03125 337.433594 C 219.652344 338.566406 215.269531 339.484375 214.421875 339.484375 L 212.796875 339.484375 L 214.84375 335.386719 C 218.730469 327.613281 219.652344 322.027344 219.296875 310.15625 L 218.945312 299.484375 L 223.890625 297.859375 C 233.644531 294.75 243.75 286.339844 248.554688 277.367188 C 251.804688 271.21875 252.867188 266.765625 252.867188 258.921875 C 252.792969 240.40625 241.132812 227.898438 218.519531 222.171875 L 215.621094 221.464844 L 215.128906 206.132812 C 214.84375 197.652344 214.492188 188.394531 214.210938 185.566406 L 213.785156 180.476562 L 216.1875 180.902344 C 217.53125 181.113281 221.136719 181.960938 224.246094 182.738281 Z M 115.058594 219.558594 C 116.828125 220.40625 119.722656 222.527344 121.5625 224.363281 C 126.226562 229.027344 127.496094 233.550781 126.648438 242.667969 C 125.800781 252.066406 125.941406 262.101562 127.003906 266.695312 C 129.972656 279.132812 138.027344 288.816406 150.464844 294.890625 C 154.492188 296.871094 158.875 298.707031 160.148438 298.921875 L 162.410156 299.34375 L 162.410156 310.15625 C 162.410156 322.382812 163.679688 329.097656 167.355469 335.808594 C 168.484375 337.929688 169.335938 339.835938 169.261719 339.980469 C 168.34375 340.828125 149.050781 335.738281 141.703125 332.699219 C 107.710938 318.566406 86.085938 287.964844 86.085938 254.046875 C 86.085938 241.183594 88.839844 229.097656 92.871094 224.292969 C 98.382812 217.792969 107.355469 215.882812 115.058594 219.558594 Z M 63.753906 382.167969 C 69.335938 383.300781 76.050781 386.195312 78.101562 388.386719 C 79.230469 389.660156 79.230469 389.871094 78.101562 391.992188 C 77.394531 393.265625 75.839844 395.453125 74.566406 397.007812 L 72.234375 399.765625 L 69.265625 398.210938 C 59.585938 393.265625 48.628906 393.972656 48.628906 399.414062 C 48.628906 402.523438 51.175781 404.289062 60.21875 407.328125 C 69.832031 410.507812 72.304688 411.921875 76.050781 416.160156 C 82.765625 423.792969 81.632812 435.664062 73.648438 441.460938 C 68.207031 445.417969 64.179688 446.550781 55.34375 446.550781 C 49.054688 446.550781 46.652344 446.265625 42.90625 444.921875 C 37.605469 443.085938 31.8125 439.695312 31.175781 437.996094 C 30.679688 436.585938 32.519531 432.980469 35.558594 429.375 L 37.816406 426.761719 L 40.574219 428.667969 C 47.074219 433.050781 58.523438 434.605469 62.550781 431.636719 C 65.238281 429.589844 65.589844 426.265625 63.257812 424.148438 C 62.269531 423.226562 57.957031 421.390625 53.082031 419.90625 C 43.117188 416.796875 38.59375 414.039062 35.558594 409.164062 C 33.648438 406.054688 33.4375 405.066406 33.4375 400.332031 C 33.507812 394.113281 34.992188 390.578125 39.089844 386.972656 C 44.957031 381.746094 53.222656 380.191406 63.753906 382.167969 Z M 274.5625 382.664062 C 281.558594 383.582031 286.644531 385.984375 290.320312 390.15625 C 294.703125 395.171875 296.398438 402.875 294.5625 409.589844 C 293.429688 413.617188 289.613281 418.707031 285.585938 421.53125 C 282.476562 423.652344 282.050781 424.21875 282.898438 425.066406 C 284.738281 427.042969 295.972656 443.722656 295.972656 444.570312 C 295.972656 445.914062 293.5 446.265625 286.433594 446.054688 L 280.074219 445.84375 L 266.644531 425.773438 L 262.617188 425.703125 L 258.519531 425.703125 L 258.519531 435.101562 C 258.519531 441.460938 258.238281 444.78125 257.671875 445.347656 C 256.753906 446.265625 246.152344 446.550781 244.101562 445.773438 C 243.113281 445.417969 242.972656 442.027344 242.972656 414.816406 C 242.972656 398.070312 243.253906 384.007812 243.539062 383.511719 C 244.527344 382.027344 265.375 381.390625 274.5625 382.664062 Z M 352.652344 382.664062 C 353.710938 383.230469 353.921875 384.21875 353.921875 389.378906 C 353.921875 395.171875 353.851562 395.382812 352.085938 396.019531 C 351.097656 396.445312 347.28125 396.726562 343.605469 396.726562 L 336.960938 396.726562 L 336.960938 420.683594 C 336.960938 440.328125 336.75 444.78125 335.972656 445.417969 C 335.335938 445.984375 332.652344 446.195312 328.410156 446.054688 L 321.769531 445.84375 L 321.554688 421.25 L 321.414062 396.726562 L 313.78125 396.726562 C 303.675781 396.726562 303.039062 396.304688 303.039062 389.449219 C 303.039062 384.148438 303.394531 383.085938 305.160156 382.382812 C 307 381.675781 351.238281 381.886719 352.652344 382.664062 Z M 105.238281 383.441406 C 105.871094 383.9375 107.5 385.914062 108.839844 387.894531 C 112.164062 392.628906 122.054688 407.117188 123.824219 409.941406 C 124.671875 411.214844 125.519531 412.203125 125.800781 412.273438 C 126.085938 412.273438 129.972656 406.972656 134.566406 400.402344 C 139.085938 393.898438 143.894531 387.257812 145.234375 385.5625 L 147.636719 382.59375 L 152.726562 382.59375 C 155.554688 382.59375 158.238281 382.875 158.734375 383.160156 C 159.441406 383.652344 159.582031 390.4375 159.441406 414.816406 L 159.226562 445.84375 L 145.800781 445.84375 L 145.449219 427.113281 L 145.09375 408.386719 L 138.453125 418.210938 C 134.847656 423.582031 131.242188 428.597656 130.535156 429.304688 C 129.195312 430.648438 124.882812 431.144531 122.550781 430.222656 C 121.914062 429.941406 118.453125 425.488281 114.917969 420.261719 C 111.386719 415.101562 108.203125 410.648438 107.851562 410.4375 C 107.570312 410.226562 107.285156 418 107.285156 427.679688 C 107.285156 443.15625 107.144531 445.417969 106.15625 445.773438 C 105.519531 445.984375 102.550781 446.195312 99.511719 446.195312 C 94.917969 446.195312 93.789062 445.984375 93.292969 444.921875 C 92.871094 444.289062 92.65625 430.71875 92.726562 413.828125 C 92.800781 388.105469 92.941406 383.863281 93.859375 383.300781 C 95.414062 382.308594 104.035156 382.453125 105.238281 383.441406 Z M 208.769531 383.160156 C 209.96875 383.9375 211.101562 386.339844 219.652344 406.972656 C 224.03125 417.433594 229.332031 430.152344 231.453125 435.171875 C 233.574219 440.117188 235.128906 444.640625 234.914062 445.207031 C 234.632812 445.984375 232.867188 446.195312 227.566406 446.195312 C 219.507812 446.195312 219.4375 446.125 216.824219 439.625 L 215.128906 435.59375 L 189.898438 435.59375 L 189.191406 437.714844 C 188.769531 438.847656 187.777344 441.105469 186.929688 442.804688 L 185.375 445.84375 L 177.957031 445.84375 C 171.667969 445.84375 170.535156 445.699219 170.324219 444.710938 C 170.183594 444.074219 171.878906 439.480469 174 434.464844 C 176.117188 429.445312 181.703125 416.089844 186.4375 404.855469 C 191.101562 393.546875 195.480469 383.9375 196.117188 383.441406 C 197.390625 382.523438 207.425781 382.238281 208.769531 383.160156 Z M 160.289062 461.105469 C 169.050781 462.519531 174.421875 466.125 177.742188 472.910156 C 180.359375 478.207031 180.5 485.0625 178.097656 490.433594 C 176.402344 494.179688 171.949219 499.054688 168.558594 500.753906 C 166.578125 501.742188 166.578125 501.742188 167.921875 503.507812 C 171.242188 507.75 180.78125 522.234375 180.78125 522.941406 C 180.78125 524.355469 170.113281 525.273438 166.152344 524.214844 C 165.164062 523.933594 162.054688 520.046875 157.671875 513.613281 L 150.75 503.4375 L 143.328125 503.4375 L 143.328125 523.226562 L 141.492188 523.933594 C 139.511719 524.710938 132.585938 524.851562 130.113281 524.214844 L 128.488281 523.789062 L 128.488281 461.105469 L 130.820312 460.824219 C 135.835938 460.1875 155.976562 460.398438 160.289062 461.105469 Z M 284.527344 461.390625 C 285.726562 461.8125 285.796875 522.871094 284.597656 523.648438 C 283.113281 524.496094 274.492188 524.78125 272.441406 524.003906 L 270.53125 523.226562 L 270.675781 492.34375 L 270.886719 461.390625 L 273.007812 460.964844 C 274.984375 460.542969 282.546875 460.824219 284.527344 461.390625 Z M 342.191406 461.035156 C 343.957031 461.671875 344.03125 461.953125 344.03125 467.253906 C 344.03125 470.578125 343.675781 473.121094 343.179688 473.617188 C 342.617188 474.179688 339.859375 474.464844 335.40625 474.464844 L 328.480469 474.464844 L 328.480469 498.277344 C 328.480469 511.421875 328.199219 522.589844 327.847656 523.085938 C 327.070312 524.285156 318.09375 524.992188 315.621094 524.003906 L 313.640625 523.296875 L 313.5 499.054688 L 313.289062 474.816406 L 305.585938 474.605469 C 301.203125 474.535156 297.386719 474.039062 296.894531 473.617188 C 296.1875 473.050781 295.972656 471.285156 296.117188 467.113281 L 296.328125 461.390625 L 298.449219 460.964844 C 301.980469 460.1875 340.214844 460.257812 342.191406 461.035156 Z M -3.097656 464.710938 C -1.617188 466.761719 2.90625 473.121094 6.863281 478.84375 C 10.824219 484.640625 14.285156 489.304688 14.566406 489.304688 C 14.851562 489.304688 17.464844 485.839844 20.363281 481.671875 C 23.261719 477.503906 27.78125 471.140625 30.398438 467.539062 L 35.203125 461.035156 L 41.140625 461.035156 C 45.875 461.035156 47.148438 461.25 47.5 462.167969 C 48.207031 463.933594 47.996094 522.023438 47.289062 523.15625 C 46.511719 524.425781 37.675781 525.0625 35.0625 524.003906 L 33.082031 523.296875 L 32.941406 505.273438 L 32.730469 487.324219 L 25.734375 497.5 L 18.738281 507.679688 L 10.539062 507.679688 L 3.613281 497.429688 C -0.203125 491.847656 -3.523438 487.253906 -3.804688 487.183594 C -4.160156 487.183594 -4.371094 495.238281 -4.371094 505.132812 C -4.371094 516.652344 -4.652344 523.296875 -5.078125 523.578125 C -6.351562 524.355469 -13.277344 524.851562 -15.960938 524.355469 L -18.503906 523.863281 L -18.503906 492.90625 C -18.503906 475.875 -18.292969 461.742188 -18.011719 461.53125 C -17.796875 461.25 -14.902344 461.035156 -11.722656 461.035156 L -5.855469 461.035156 Z M 95.273438 462.097656 C 96.542969 463.652344 120.714844 521.105469 120.714844 522.589844 C 120.714844 523.933594 118.027344 524.640625 112.515625 524.640625 C 106.578125 524.640625 105.589844 524.003906 103.328125 518.347656 L 101.28125 513.332031 L 76.332031 513.332031 L 74.214844 518.417969 C 71.808594 524.074219 71.316406 524.425781 65.167969 524.566406 C 60.503906 524.640625 57.109375 524.003906 56.6875 522.871094 C 56.476562 522.378906 60.503906 512.058594 65.660156 499.832031 C 70.75 487.609375 76.261719 474.464844 77.816406 470.578125 C 81.703125 460.894531 81.5625 461.035156 88.558594 461.035156 C 92.941406 461.035156 94.636719 461.320312 95.273438 462.097656 Z M 204.597656 462.589844 C 205.375 463.507812 210.039062 470.011719 214.917969 477.148438 L 223.75 490.011719 L 230.320312 480.683594 C 233.925781 475.523438 238.519531 468.949219 240.640625 466.125 L 244.386719 461.035156 L 250.390625 461.035156 C 256.117188 461.035156 256.398438 461.105469 256.824219 462.730469 C 257.386719 465.207031 256.824219 523.011719 256.1875 523.648438 C 255.90625 524.003906 252.9375 524.214844 249.613281 524.285156 C 245.019531 524.285156 243.464844 524.003906 242.972656 523.226562 C 242.546875 522.589844 242.335938 514.957031 242.40625 504.285156 C 242.546875 494.535156 242.546875 486.476562 242.546875 486.476562 C 242.476562 486.476562 239.367188 490.859375 235.621094 496.300781 C 231.875 501.671875 228.414062 506.476562 227.847656 506.902344 C 227.285156 507.394531 225.234375 507.679688 223.042969 507.535156 L 219.296875 507.324219 L 212.582031 497.644531 C 208.910156 492.34375 205.730469 487.820312 205.515625 487.609375 C 205.304688 487.464844 205.234375 495.167969 205.375 504.78125 C 205.515625 520.328125 205.445312 522.449219 204.386719 523.296875 C 202.902344 524.496094 195.128906 524.992188 192.65625 524.003906 L 190.675781 523.226562 L 190.675781 492.625 C 190.675781 475.734375 190.886719 461.742188 191.171875 461.53125 C 191.382812 461.25 194.210938 461.035156 197.390625 461.035156 C 202.476562 461.035156 203.328125 461.25 204.597656 462.589844 Z M 378.515625 461.882812 C 379.152344 462.730469 388.269531 484.214844 400.210938 512.90625 C 405.015625 524.425781 405.015625 524.355469 396.820312 524.566406 C 389.328125 524.78125 388.480469 524.285156 386.078125 518.347656 L 384.097656 513.332031 L 371.660156 513.472656 L 359.292969 513.683594 L 357.597656 517.925781 C 355.125 524.144531 354.914062 524.285156 347.210938 524.285156 C 343.394531 524.285156 340.214844 523.933594 339.789062 523.507812 C 339.292969 523.011719 341.273438 517.429688 346.925781 504.074219 C 356.609375 481.105469 364.59375 462.238281 365.019531 461.53125 C 365.582031 460.613281 377.738281 460.964844 378.515625 461.882812 Z M 378.515625 461.882812 " fill-opacity="1" fill-rule="nonzero"/></svg>